<?xml version="1.0" standalone="no"?>
<!DOCTYPE svg PUBLIC "-//W3C//DTD SVG 20010904//EN"
 "http://www.w3.org/TR/2001/REC-SVG-20010904/DTD/svg10.dtd">
<svg version="1.0" xmlns="http://www.w3.org/2000/svg"
 width="512.000000pt" height="512.000000pt" viewBox="0 0 512.000000 512.000000"
 preserveAspectRatio="xMidYMid meet">
<metadata>
Created by potrace 1.14, written by Peter Selinger 2001-2017
</metadata>
<g transform="translate(0.000000,512.000000) scale(0.100000,-0.100000)"
fill="#000000" stroke="none">
<path d="M3540 5094 c-336 -60 -618 -279 -760 -589 -62 -135 -82 -232 -85
-410 -5 -289 53 -558 179 -829 25 -54 46 -101 46 -105 0 -4 -26 -6 -57 -5 -32
1 -68 -2 -80 -7 -12 -4 -65 -66 -118 -136 -53 -70 -100 -129 -104 -131 -4 -1
-49 54 -99 122 -51 68 -100 130 -109 138 -13 10 -120 13 -542 14 l-526 1 -5
114 c-6 129 -18 158 -78 199 l-37 25 -380 2 c-221 2 -403 -1 -435 -7 -133 -24
-252 -118 -313 -247 l-32 -68 -2 -1390 c-3 -1511 -5 -1455 52 -1558 36 -64
111 -136 176 -169 116 -60 15 -56 1851 -57 1191 -1 1694 2 1710 10 13 6 48 42
78 81 30 39 60 76 65 82 6 6 43 53 83 104 41 50 75 92 78 92 2 0 67 -79 144
-175 77 -96 149 -179 160 -185 14 -7 118 -10 313 -8 l294 3 36 25 c20 13 45
41 56 61 21 36 21 45 21 1485 0 1625 7 1484 -73 1548 l-39 31 -246 2 c-136 1
-250 2 -254 2 -4 1 15 47 42 104 76 159 145 382 165 537 18 140 22 194 20 289
-4 161 -21 248 -76 384 -67 167 -221 358 -364 454 -114 77 -290 150 -400 168
-84 13 -281 13 -355 -1z"/>
</g>
</svg>
